<svg width="16" height="16" viewBox="0 0 16 16" fill="none" xmlns="http://www.w3.org/2000/svg">
<path d="M13.5 7C13.6458 7 13.7604 7.05208 13.8438 7.15625C13.9479 7.23958 14 7.35417 14 7.5V8.5C14 8.64583 13.9479 8.77083 13.8438 8.875C13.7604 8.95833 13.6458 9 13.5 9H9V13.5C9 13.6458 8.94792 13.7708 8.84375 13.875C8.76042 13.9583 8.64583 14 8.5 14H7.5C7.35417 14 7.22917 13.9583 7.125 13.875C7.04167 13.7708 7 13.6458 7 13.5V9H2.5C2.35417 9 2.22917 8.95833 2.125 8.875C2.04167 8.77083 2 8.64583 2 8.5V7.5C2 7.35417 2.04167 7.23958 2.125 7.15625C2.22917 7.05208 2.35417 7 2.5 7H7V2.5C7 2.35417 7.04167 2.23958 7.125 2.15625C7.22917 2.05208 7.35417 2 7.5 2H8.5C8.64583 2 8.76042 2.05208 8.84375 2.15625C8.94792 2.23958 9 2.35417 9 2.5V7H13.5Z" fill="#252828"/>
</svg>
